# xmcd CD database file
#
# Track frame offsets:
#	150
#	19535
#	31472
#	44012
#	58572
#	84148
#	99645
#	126520
#	149931
#	166421
#
# Disc length: 2362 seconds
#
# Revision: 0
# Processed by: cddbd v1.5.2PL0 Copyright (c) Steve Scherf et al.
# Submitted via: jetAudio 7
#
DISCID=8b09380a
DTITLE=Ilan Virtberg and Shimon Gelbetz - Batzir Tov
DYEAR=1982
DGENRE=Israeli
TTITLE0=Pticha
TTITLE1=K'Shebati Lakachat Ota Meha'Ananim
TTITLE2=Yonatan
TTITLE3=Oy Tzipora
TTITLE4=Lo Yacholti La'Asot Kloom
TTITLE5=Kol Neshifa
TTITLE6=Ani Holech Ba'Mishor
TTITLE7=Shir Kdamshnati
TTITLE8=Mifletzet Ha'Ayala
TTITLE9=Cornelia
EXTD=
EXTT0=
EXTT1=
EXTT2=
EXTT3=
EXTT4=
EXTT5=
EXTT6=
EXTT7=
EXTT8=
EXTT9=
PLAYORDER=
